<svg width="60" height="60" viewBox="0 0 60 60" fill="none" xmlns="http://www.w3.org/2000/svg">
<rect x="60" width="60" height="60" rx="30" transform="rotate(90 60 0)" fill="#004B49"/>
<g clip-path="url(#clip0_128_460)">
<path d="M39.2188 29.2188H30.7812V20.7812C30.7812 20.3498 30.4315 20 30 20C29.5685 20 29.2188 20.3498 29.2188 20.7812V29.2188H20.7812C20.3498 29.2188 20 29.5685 20 30C20 30.4315 20.3498 30.7812 20.7812 30.7812H29.2188V39.2188C29.2188 39.6502 29.5685 40 30 40C30.4315 40 30.7812 39.6502 30.7812 39.2188V30.7812H39.2188C39.6502 30.7812 40 30.4315 40 30C40 29.5685 39.6502 29.2188 39.2188 29.2188Z" fill="white"/>
</g>
<defs>
<clipPath id="clip0_128_460">
<rect width="20" height="20" fill="white" transform="translate(20 20)"/>
</clipPath>
</defs>
</svg>
