<svg width="67" height="67" viewBox="0 0 67 67" fill="none" xmlns="http://www.w3.org/2000/svg">
<path d="M43.2708 33.5C50.25 33.5 55.8333 39.0833 55.8333 46.0625C55.8333 48.5191 55.1354 50.8362 53.9071 52.7625L62.5054 61.4166L58.625 65.297L49.915 56.7266C47.9888 57.927 45.6996 58.625 43.2708 58.625C36.2917 58.625 30.7083 53.0416 30.7083 46.0625C30.7083 39.0833 36.2917 33.5 43.2708 33.5ZM43.2708 39.0833C41.4198 39.0833 39.6447 39.8186 38.3358 41.1274C37.027 42.4363 36.2917 44.2115 36.2917 46.0625C36.2917 47.9135 37.027 49.6886 38.3358 50.9975C39.6447 52.3063 41.4198 53.0416 43.2708 53.0416C45.1218 53.0416 46.897 52.3063 48.2058 50.9975C49.5147 49.6886 50.25 47.9135 50.25 46.0625C50.25 44.2115 49.5147 42.4363 48.2058 41.1274C46.897 39.8186 45.1218 39.0833 43.2708 39.0833ZM53.0417 22.3333H13.9583V53.0416H26.5208C27.3863 55.1354 28.6425 57.0058 30.1779 58.625H13.9583C12.4775 58.625 11.0574 58.0367 10.0103 56.9896C8.96324 55.9426 8.375 54.5224 8.375 53.0416V13.9583C8.375 10.8595 10.8596 8.37496 13.9583 8.37496H16.75V2.79163H22.3333V8.37496H44.6667V2.79163H50.25V8.37496H53.0417C54.5225 8.37496 55.9426 8.9632 56.9897 10.0103C58.0368 11.0574 58.625 12.4775 58.625 13.9583V36.3754C57.2292 34.1141 55.275 32.2158 53.0417 30.7083V22.3333Z" fill="#3B71FE"/>
</svg>
