<svg width="90" height="94" viewBox="0 0 90 94" fill="none" xmlns="http://www.w3.org/2000/svg">
<g clip-path="url(#clip0_128_511)">
<path d="M44.3711 26.7867L59.2188 17.6935C59.2188 17.6935 74.0664 8.60027 81.6621 24.2669C89.2578 39.9336 74.4102 49.0268 74.4102 49.0268L54.6133 61.1511C54.6133 61.1511 39.7657 70.2443 32.17 54.5776C30.7458 51.6401 30.3457 48.1737 30.3457 48.1737L38.64 43.1024C38.64 43.1024 37.5632 45.8428 39.5938 50.031C39.5938 50.031 43.3917 57.8644 50.8155 53.3178L70.6123 41.1935C70.6123 41.1935 78.0362 36.6469 74.2383 28.8135C70.4405 20.9802 63.0166 25.5268 63.0166 25.5268L53.7888 31.1782C53.7888 31.1782 51.2405 27.0243 43.4432 27.355L44.3711 26.7867Z" fill="#A5E481"/>
<path d="M44.4249 67.1284L29.5772 76.2216C29.5772 76.2216 14.7296 85.3148 7.1339 69.6481C-0.461808 53.9815 14.3858 44.8882 14.3858 44.8882L34.1827 32.764C34.1827 32.764 49.0304 23.6708 56.6261 39.3374C58.0503 42.2749 58.4504 45.7414 58.4504 45.7414L50.1536 50.8142C50.1536 50.8142 51.231 48.0717 49.2004 43.8835C49.2004 43.8835 45.4025 36.0501 37.9787 40.5968L18.1818 52.721C18.1818 52.721 10.758 57.2676 14.5559 65.101C18.3537 72.9343 25.7775 68.3877 25.7775 68.3877L35.0053 62.7363C35.0053 62.7363 37.5537 66.8902 45.351 66.5595L44.4249 67.1284Z" fill="#A5E481"/>
</g>
<defs>
<clipPath id="clip0_128_511">
<rect width="70.1586" height="77.4001" fill="white" transform="translate(21.7559) rotate(16.3248)"/>
</clipPath>
</defs>
</svg>
