<svg width="39" height="44" viewBox="0 0 39 44" fill="none" xmlns="http://www.w3.org/2000/svg">
<path d="M19.6652 0.379699C29.4162 0.379708 38.1202 8.74335 38.1202 19.9866C38.1201 25.3698 36.1761 28.4143 33.6083 31.4092C31.115 34.3171 27.9797 37.2214 25.5763 42.1169L25.3459 42.5975C25.0562 43.2155 24.4509 43.6198 23.7895 43.6199H14.6085C14.0272 43.6198 13.4867 43.3083 13.1698 42.8091L13.1095 42.7072C10.359 37.6767 7.10863 34.7662 4.63549 31.775C2.16561 28.7878 0.379755 25.6392 0.379699 19.9866L0.38662 19.4398C0.672483 8.2121 9.74524 0.623678 19.2074 0.385632L19.6652 0.379699Z" fill="#FBF9ED" stroke="#0B5243" stroke-width="0.75" stroke-linejoin="round"/>
</svg>
