<svg width="27" height="4" viewBox="0 0 27 4" fill="none" xmlns="http://www.w3.org/2000/svg">
<path d="M25.6015 0H1.39848C0.626123 0 0 0.760842 0 1.69939C0 2.63794 0.626123 3.39878 1.39848 3.39878H25.6015C26.3739 3.39878 27 2.63794 27 1.69939C27 0.760842 26.3739 0 25.6015 0Z" fill="#4A4C4B" fill-opacity="0.4"/>
<path d="M1.39818 0.503423H25.6018C26.0087 0.503659 26.4964 0.94273 26.4966 1.69905C26.4966 2.45558 26.0088 2.89543 25.6018 2.89567H1.39818C0.991238 2.89545 0.503423 2.4556 0.503423 1.69905C0.503559 0.989725 0.932528 0.559268 1.32149 0.508339L1.39818 0.503423Z" stroke="#656563" stroke-opacity="0.85"/>
</svg>
