<svg width="11" height="3" viewBox="0 0 11 3" fill="none" xmlns="http://www.w3.org/2000/svg">
<path d="M10.2654 1.48155C9.75458 1.44871 5.80141 0.0154535 4.7558 0.000122964C3.71019 -0.0152076 3.25161 1.14422 2.95536 1.13988C2.6591 1.13553 2.2566 0.451492 1.62087 0.220349C0.985133 -0.0107938 0.95921 1.75706 0.506111 1.75042C0.244708 1.74658 0.00705174 1.31213 8.40006e-05 1.78736C-0.00437535 2.09151 0.213252 2.70313 0.799957 2.71173C1.22401 2.71795 1.21732 1.58973 2.07691 2.00795C2.07691 2.00795 2.43484 2.1653 3.00411 2.17365C3.57339 2.18199 4.27524 1.46978 5.57403 1.6536C6.87283 1.83743 9.57056 2.11148 10.256 2.12153C10.9415 2.13158 11.1022 1.47481 10.9439 1.17461C10.8067 1.02049 10.7763 1.50806 10.2655 1.47522L10.2654 1.48155Z" fill="#E55C45"/>
</svg>
