<svg width="92" height="93" viewBox="0 0 92 93" fill="none" xmlns="http://www.w3.org/2000/svg">
<path d="M30.5655 -1.50938e-05C30.5655 -1.50938e-05 19.6291 2.97485 15.2985 7.56181C10.9679 12.1488 3.12867 47.2972 -7.44052e-06 52.3268C3.05891 57.4472 2.83975 70.0833 2.83975 70.0833C7.59871 73.6394 16.5038 56.6895 18.7895 44.4532C19.626 53.6432 21.3221 52.35 23.0788 60.7835C23.4011 68.0688 19.9142 88.7569 19.8745 91.4665L73.2807 92.2495C73.3121 90.1126 73.128 76.8607 73.1936 72.3899C73.1936 72.3899 85.3201 70.2763 87.7119 67.7429C90.1038 65.2094 91.4667 58.9097 91.4667 58.9097C91.8397 55.0346 93.0685 51.3384 89.7604 39.7161C85.8115 28.2877 79.3006 5.9563 76.832 4.86067C74.3635 3.76503 59.1947 1.93499 59.1947 1.93499L46.8112 5.40604L42.5129 13.9479L39.1676 5.6389L30.5767 0.00630989L30.5655 -1.50938e-05Z" fill="#F78888"/>
</svg>
