<svg width="19" height="30" viewBox="0 0 19 30" fill="none" xmlns="http://www.w3.org/2000/svg">
<path d="M16.8981 29.6833L13.5373 24.7215C13.5373 24.7215 15.0837 21.1175 16.5009 20.0833C17.9181 19.0492 17.8739 15.8213 16.5467 16.9629C15.2195 18.1045 14.1871 19.0444 13.0403 19.9826C11.8934 20.9209 11.1039 21.6896 11.1039 21.6896C11.1039 21.6896 11.7433 19.4518 12.013 18.6193C12.2828 17.7868 14.1565 15.667 14.7444 15.3822C15.3322 15.0974 16.1226 14.6596 17.5478 14.2498C18.973 13.84 19.9178 10.6766 17.5907 11.3291C15.2635 11.9816 14.0475 12.1698 12.85 12.6641C11.6525 13.1584 9.71959 15.4084 8.93496 16.2334C8.15032 17.0583 7.21076 19.4727 7.21076 19.4727C7.21076 19.4727 7.81308 15.8611 8.4853 14.8972C9.15752 13.9333 10.4835 12.0926 12.0223 11.3536C13.561 10.6146 15.184 9.98297 16.2536 8.8501C17.3232 7.71723 15.6537 6.44433 13.2331 7.61357C10.8125 8.78281 9.8159 9.23012 8.98536 9.67362C8.15481 10.1171 5.77701 12.6602 5.24232 13.2204C4.70763 13.7806 3.04752 18.1133 3.04752 18.1133L4.70787 14.1552C4.70787 14.1552 6.52052 9.17556 6.88393 7.80762C7.28396 6.28416 8.04575 5.06563 8.0807 2.68165C8.11566 0.297668 6.60088 -0.598438 6.15124 0.406194C5.7016 1.41083 5.11557 3.91157 4.52537 5.52587C3.93517 7.14017 3.03255 9.76735 2.10333 11.4766C1.17411 13.1858 -0.138485 14.5023 0.0657965 15.7912C-0.30118 17.4025 0.986728 20.892 0.986728 20.892C0.910165 22.6013 2.63201 24.2058 4.28995 23.9242C4.44064 26.1361 6.84066 26.3711 8.14118 26.6586L10.2529 27.8256L16.8924 29.6832L16.8981 29.6833Z" fill="#FFD9B3"/>
</svg>
