<svg width="71" height="82" viewBox="0 0 71 82" fill="none" xmlns="http://www.w3.org/2000/svg">
<path d="M67.1771 0H3.82293C1.71158 0 0 2.08478 0 4.65648V76.8398C0 79.4115 1.71158 81.4963 3.82293 81.4963H67.1771C69.2884 81.4963 71 79.4115 71 76.8398V4.65648C71 2.08478 69.2884 0 67.1771 0Z" fill="#F0D843" fill-opacity="0.38"/>
<path d="M3.82327 0.501285H67.177C68.9236 0.501285 70.499 2.26462 70.499 4.65646V76.8395C70.499 79.2313 68.9236 80.9947 67.177 80.9947H3.82327C2.07672 80.9947 0.501285 79.2313 0.501285 76.8395V4.65646C0.501292 2.26462 2.07673 0.501285 3.82327 0.501285Z" stroke="#656563" stroke-opacity="0.85"/>
</svg>
