<svg width="79" height="199" viewBox="0 0 79 199" fill="none" xmlns="http://www.w3.org/2000/svg">
<path d="M71.7503 0H6.92961C3.10249 0 0 3.77895 0 8.44053V190.559C0 195.221 3.10249 199 6.92961 199H71.7503C75.5774 199 78.6799 195.221 78.6799 190.559V8.44053C78.6799 3.77895 75.5774 0 71.7503 0Z" fill="#F0D843" fill-opacity="0.38"/>
<path d="M6.92989 0.500791H71.75C75.2126 0.500791 78.1789 3.95839 78.1791 8.44008V190.56C78.179 195.041 75.2126 198.499 71.75 198.499H6.92989C3.46724 198.499 0.500858 195.041 0.500791 190.56V8.44008C0.500989 3.95839 3.46732 0.500791 6.92989 0.500791Z" stroke="#656563" stroke-opacity="0.85"/>
</svg>
