<svg width="71" height="46" viewBox="0 0 71 46" fill="none" xmlns="http://www.w3.org/2000/svg">
<path d="M67.1771 0H3.82293C1.71158 0 0 2.08477 0 4.65647V40.9402C0 43.5119 1.71158 45.5967 3.82293 45.5967H67.1771C69.2884 45.5967 71 43.5119 71 40.9402V4.65647C71 2.08477 69.2884 0 67.1771 0Z" fill="#F0D843" fill-opacity="0.38"/>
<path d="M3.82327 0.501285H67.177C68.9236 0.501285 70.499 2.26461 70.499 4.65646V40.9399C70.499 43.3317 68.9236 45.0951 67.177 45.0951H3.82327C2.07672 45.0951 0.501285 43.3317 0.501285 40.9399V4.65646C0.501289 2.26461 2.07672 0.501285 3.82327 0.501285Z" stroke="#656563" stroke-opacity="0.85"/>
</svg>
