<svg width="135" height="125" viewBox="0 0 135 125" fill="none" xmlns="http://www.w3.org/2000/svg">
<g clip-path="url(#clip0_128_354)">
<path d="M37.7047 125L20.5373 115.375L79.7382 113.497L96.7522 122.744L37.7047 125Z" fill="#585858"/>
<path d="M39.8527 46.4486C40.4061 46.0785 44.4829 44.8646 52.1652 44.8646C59.8475 44.8646 63.1023 46.4034 63.1023 46.4034C63.1023 46.4034 64.7791 47.1074 61.5516 51.7825C58.3242 56.4576 54.6639 59.9052 54.6639 59.9052L53.6337 61.3989L52.4775 59.3773L39.8856 49.7744C39.8856 49.7744 39.0855 48.1453 39.2225 47.5903C39.3595 47.0352 39.2992 46.8186 39.8527 46.4486Z" fill="#0B5243"/>
<path d="M103.393 82.166C107.191 82.166 112.752 84.5758 113.454 89.0478C113.454 89.0478 113.733 96.2094 105.908 91.9494C98.0837 87.6895 99.6179 82.166 103.393 82.166Z" fill="#0B5243"/>
<path d="M72.0285 25.1444C72.0285 25.1444 73.3107 18.1769 72.7682 15.4693C72.6312 14.7879 74.1491 14.3998 74.1984 13.7365C74.3025 12.333 76.3464 12.8655 76.1765 11.8141C75.4203 7.10288 62.5599 1.43953 58.7297 0.406133C54.8995 -0.627261 45.8253 0.500898 43.8308 1.51624C41.8362 2.53158 40.1266 5.18953 40.1266 5.18953C40.1266 5.18953 37.7266 5.33844 35.8362 6.01985C33.9457 6.70126 31.8799 11.6336 31.1238 15.0993C30.3676 18.565 33.2279 25.2753 33.2279 25.2753C33.2279 25.2753 35.069 31.074 54.1214 31.981C73.1737 32.8881 72.023 25.1444 72.023 25.1444H72.0285Z" fill="#031001"/>
<path d="M105.952 102.338C105.952 102.338 98.407 113.384 91.2781 113.384C84.1492 113.384 80.6094 104.409 80.6094 104.409L80.1985 103.47V116.792H57.3324L28.7018 116.715C28.7018 116.715 9.91247 117.342 5.26582 116.354C0.761642 115.393 -0.410978 107.915 0.115057 100.695C0.641092 93.4747 9.11245 66.2274 14.8714 60.898C20.7181 57.4774 29.5018 54.4449 36.3238 52.4594L66.0941 52.13C66.0941 52.13 81.0588 58.1137 84.2369 60.4693C87.3493 62.7753 94.8672 89.1877 94.2644 89.6796L105.952 102.333V102.338Z" fill="#C9EBDF"/>
<path d="M61.9845 42.1435V46.9585C61.9845 48.6011 62.8174 50.6724 62.8174 50.6724L63.1078 51.2635L60.8064 54.833C60.8064 54.833 56.2748 59.0523 55.4803 59.2374C54.6858 59.4224 53.6337 61.3989 53.6337 61.3989C53.6337 61.3989 53.5296 60.9702 52.7898 59.8917C52.4227 59.3547 51.957 59.6074 50.7021 58.9125C48.0994 57.4684 42.1705 51.3899 42.1705 51.3899L41.2171 49.9639C42.4061 46.7915 42.1431 41.2816 42.1431 41.2816L61.979 42.148L61.9845 42.1435Z" fill="#E8B98E"/>
<path d="M38.4883 35.3475C38.4883 35.3475 37.5074 35.5415 36.0444 35.0045C34.5814 34.4675 34.6855 33.3529 33.8197 31.6516C32.9539 29.9549 31.2169 27.0036 32.3567 25.5551C33.4964 24.1065 36.6033 24.9098 36.6033 24.9098L38.4937 35.343L38.4883 35.3475Z" fill="#F7CBA4"/>
<path d="M67.6558 33.8448C67.6558 33.8448 68.1983 34.2283 69.2997 33.8448C70.4011 33.4612 70.6696 32.0532 71.2668 30.713C71.8641 29.3727 73.234 25.7085 72.0833 24.7563C70.9271 23.8042 69.7654 25.3114 69.7654 25.3114L67.6558 33.8403V33.8448Z" fill="#F7CBA4"/>
<path d="M63.4146 47.4098C63.6503 48.9125 60.9653 53.7636 54.872 59.2599C54.0282 59.8105 53.5953 61.6155 53.5953 61.6155C54.2529 60.6498 54.9159 59.648 55.4529 59.5894C57.3104 59.5894 60.2584 67.1029 61.8585 67.2834C63.4585 67.4639 66.3243 52.3601 66.0996 51.7735C65.875 51.1868 64.2421 47.1977 63.727 46.7735C63.5023 46.5885 63.1078 46.4034 63.1078 46.4034C63.1078 46.4034 63.2941 46.602 63.4146 47.4098Z" fill="#0CC59D"/>
<path d="M20.5373 62.9422C20.5373 62.9422 25.3593 64.806 27.6223 72.7527C29.8854 80.6995 27.6223 85.722 27.6223 85.722L21.151 99.6119" stroke="#0B5243" stroke-width="0.75" stroke-linecap="round" stroke-linejoin="round"/>
<path d="M5.75348 100C5.75348 100 13.5509 97.3601 32.0717 102.338" stroke="#0B5243" stroke-width="0.75" stroke-linecap="round" stroke-linejoin="round"/>
<path d="M86.0945 79.6255C86.0945 79.6255 84.1876 85.7401 80.1985 89.0253" stroke="#0B5243" stroke-width="0.75" stroke-linecap="round" stroke-linejoin="round"/>
<path d="M133.514 71.2274C134.254 70.9702 135.027 71.0966 134.873 72.0397C134.632 73.5108 133.816 74.3682 133.816 74.3682V74.3818C134.983 74.3457 134.555 75.5099 133.805 76.5117L133.388 77.0713V77.0984C133.947 76.9765 134.199 77.3285 133.777 78.6101C133.372 79.8466 132.375 81.1507 131.723 81.6877C131.07 82.2247 127.81 84.0885 126.588 84.7292C125.366 85.37 116.692 87.6625 111.711 88.8583C110.533 89.6345 108.977 92.5496 108.977 92.5496C108.977 92.5496 105.837 94.1742 102.971 91.8141C100.106 89.454 101.596 86.7058 101.596 86.7058C102.763 85.9251 103.448 85.1173 103.876 84.2193C103.876 84.2193 104.319 80.9116 106.221 78.5018C108.122 76.0921 113.021 74.0072 113.021 74.0072C113.021 74.0072 117.602 69.63 119.339 69.3231C121.076 69.0163 121.065 70.0722 120.572 70.713C120.079 71.3538 117.24 75.0316 117.24 75.0316L117.026 75.3114C117.026 75.3114 121.131 75.1895 122.522 74.815C123.914 74.4404 127.788 73.2762 128.692 72.5271C129.596 71.7825 130.944 70.6724 131.586 70.1444C132.227 69.6164 133.405 69.8285 133.629 70.3881C133.854 70.9477 133.514 71.232 133.514 71.232" fill="#FFD9B3"/>
<path d="M33.3101 102.261C31.2224 102.261 29.3594 104.116 28.4991 107.04C27.4141 110.731 27.3922 116.882 29.3594 117.058C31.3265 117.234 41.7048 117.608 41.7048 117.608V104.12C41.7048 104.12 35.3978 102.256 33.3101 102.256V102.261Z" fill="#0CC59D"/>
<path d="M84.4177 64.0478C83.7492 72.4729 82.6314 80.6092 80.1985 87.9197V116.792" stroke="#0B5243" stroke-width="0.75" stroke-linecap="round" stroke-linejoin="round"/>
<path d="M51.3158 58.6056C52.5159 59.5442 53.2665 60.2437 53.5296 60.9657C54.0666 62.4098 54.5542 70.8845 54.0666 75.5009" stroke="#0B5243" stroke-width="0.75" stroke-linecap="round" stroke-linejoin="round"/>
<path d="M39.5239 46.7058C38.6252 47.7482 36.395 51.7599 36.395 52.5903C36.395 53.4206 42.9212 67.7302 44.165 67.9558C45.4089 68.1814 50.3569 59.824 52.1925 59.9368C52.7734 59.9368 53.2939 60.0542 53.2939 60.0542C52.7569 58.6101 50.2857 57.2608 46.187 53.8809C42.0828 50.5009 40.554 49.6661 39.891 48.7906C39.3814 48.1137 39.1403 47.6264 39.5239 46.7058Z" fill="#0CC59D"/>
<path d="M69.7654 25.3159C69.7654 25.3159 67.3435 36.5388 65.6777 39.4089C64.0119 42.2789 59.2392 44.824 57.8803 45.6543C56.5214 46.4847 49.8637 45.88 48.5213 45.0451C47.1788 44.2103 41.091 41.7329 39.4252 38.1182C37.7594 34.4991 36.395 24.2329 36.395 24.2329C38.6197 22.6986 41.2225 17.3691 43.65 13.8448C51.0035 12.0623 58.5269 12.5 64.4448 14.2509C65.8475 15.0451 68.0832 18.3213 69.7654 25.3159Z" fill="#FFCD9B"/>
<path d="M57.7762 22.2653C58.2913 21.8412 60.1598 20.907 61.853 20.6949C63.5461 20.4829 65.338 21.8682 64.5927 22.1435C63.8475 22.4188 63.4201 21.6832 61.853 21.8953C60.2858 22.1074 58.0721 22.9919 57.5899 23.1273C57.1077 23.2626 57.2611 22.6895 57.7762 22.2653Z" fill="black"/>
<path d="M42.7897 22.0848C43.3486 21.6968 43.9513 21.3087 45.6664 21.3087C47.3815 21.3087 50.8336 22.6264 50.0117 23.0776C49.3268 23.4522 46.9815 22.2879 45.3979 22.3962C43.8143 22.5045 43.0034 22.9332 42.5102 23.037C42.0171 23.1408 42.2362 22.4729 42.7952 22.0803L42.7897 22.0848Z" fill="black"/>
<path d="M56.9433 30.2617C56.9433 30.2617 57.8913 32.2202 57.2008 32.7888C56.5104 33.3574 55.1899 33.8448 55.1899 33.8448" stroke="#E2AD86" stroke-width="0.75" stroke-linecap="round" stroke-linejoin="round"/>
<path d="M49.8528 30.2617C49.8528 30.2617 47.9514 33.2175 50.4008 33.5199" stroke="#E2AD86" stroke-width="0.75" stroke-linecap="round" stroke-linejoin="round"/>
<path d="M51.1405 33.0912C51.1405 33.0912 52.1432 32.9422 53.2391 33.8448" stroke="#E2AD86" stroke-width="0.75" stroke-linecap="round" stroke-linejoin="round"/>
<path d="M117.01 75.4513C115.876 78.0641 114.018 79.1561 111.881 79.657" stroke="#E2AD86" stroke-width="0.75" stroke-linecap="round" stroke-linejoin="round"/>
<path d="M123.114 77.6625C123.114 77.6625 125.175 77.139 127.027 76.2951C128.523 75.6137 129.739 74.7067 130.32 74.2283C131.081 73.6011 131.849 72.7933 132.479 71.9179C132.703 71.6065 133.098 71.3448 133.509 71.1959" stroke="#E2AD86" stroke-width="0.75" stroke-linecap="round" stroke-linejoin="round"/>
<path d="M124.429 80.1579C124.429 80.1579 127.596 78.7319 128.292 78.2626C129.049 77.7527 130.451 76.981 130.999 76.3267C131.547 75.6724 132.353 74.6074 133.394 74.4585C133.492 74.4449 133.586 74.4359 133.668 74.4359" stroke="#E2AD86" stroke-width="0.75" stroke-linecap="round" stroke-linejoin="round"/>
<path d="M120.221 83.0596C121.832 82.3014 123.953 81.9991 126.555 82.0803C127.706 81.5343 130.024 80.6002 130.495 80.2076C130.966 79.815 131.662 78.0731 132.605 77.5135C132.78 77.4098 133.131 77.1616 133.383 77.0939" stroke="#E2AD86" stroke-width="0.75" stroke-linecap="round" stroke-linejoin="round"/>
<path d="M113.01 91.2906C111.492 96.2545 109.437 99.6706 106.922 101.724C106.922 101.724 104.237 103.574 100.341 103.574C96.4453 103.574 92.1055 95.0903 93.2836 90.4829C94.4617 89.5126 98.1988 86.62 101.032 83.028C101.032 83.028 98.4015 87.5857 104.813 91.074C111.224 94.5623 113.015 91.2906 113.015 91.2906H113.01Z" fill="#0CC59D"/>
<path d="M57.5461 27.2247C57.5461 27.2247 58.3461 25.6363 60.5543 24.9504C62.7626 24.2644 64.3297 25.6318 64.3297 25.6318C64.3297 25.6318 63.2448 27.1706 61.031 27.5045C58.8173 27.8384 57.5461 27.2202 57.5461 27.2202V27.2247Z" fill="white"/>
<path d="M57.5461 27.2157C57.168 27.3736 57.9625 25.4197 60.5817 24.7428C63.2009 24.0659 64.6311 25.5686 64.4284 25.731C64.2256 25.8935 63.0201 24.5487 60.6749 25.1263C58.6036 25.5776 57.9296 27.0578 57.5461 27.2157Z" fill="black"/>
<path d="M62.4777 24.8556C62.4777 24.8556 62.9379 26.9134 61.3818 27.315C59.8256 27.7166 59.4036 26.8276 59.3105 26.5478C59.2173 26.2681 59.3105 25.537 59.3105 25.537C59.3105 25.537 60.8228 24.4359 62.4722 24.8556H62.4777Z" fill="black"/>
<path d="M42.2198 26.5478C42.2198 26.5478 44.2856 24.7067 46.6308 24.9097C48.9761 25.1128 50.2528 26.4801 50.2528 26.4801C50.2528 26.4801 49.0309 27.9106 46.3459 27.7437C43.6609 27.5767 42.2198 26.5433 42.2198 26.5433V26.5478Z" fill="white"/>
<path d="M42.2198 26.5298C41.8418 26.6877 42.9431 24.9143 45.6665 24.6029C48.5377 24.2735 50.7296 26.3718 50.5268 26.5388C50.3241 26.7058 48.1597 24.8827 45.5514 25.2211C43.3212 25.5551 42.5925 26.3718 42.2144 26.5298H42.2198Z" fill="black"/>
<path d="M44.4281 25.2392C44.4281 25.2392 44.2472 27.5632 46.4774 27.5632C48.7076 27.5632 48.5103 25.3204 48.5103 25.3204C48.5103 25.3204 47.8308 24.8962 46.6253 24.8962C45.4198 24.8962 44.4281 25.2437 44.4281 25.2437V25.2392Z" fill="black"/>
<path d="M49.9405 27.3736C49.5788 27.6715 48.3076 28.6597 46.2363 28.5334C44.6253 28.4341 43.239 27.9467 42.839 27.7617C42.4225 27.5677 42.3403 27.7346 42.4719 27.8836C42.691 28.1272 44.6034 28.9621 46.2308 28.9621C47.8582 28.9621 49.6665 28.2942 50.0336 27.7617C50.4007 27.2292 50.3021 27.0758 49.9405 27.3736Z" fill="#F4BD98"/>
<path d="M64.0393 26.9585C63.7544 27.2744 62.7352 28.3213 60.9379 28.2942C59.5406 28.2717 58.3077 27.8565 57.9461 27.6895C57.568 27.5136 57.5132 27.6895 57.6392 27.8294C57.8475 28.0641 59.5626 28.7997 60.9708 28.7229C62.379 28.6462 63.8804 27.8926 64.1489 27.3421C64.4174 26.7915 64.3243 26.6471 64.0339 26.9585H64.0393Z" fill="#F4BD98"/>
<path d="M47.8911 37.7166C47.8911 37.7166 51.135 37.0713 51.9679 37.4594C52.8008 37.8475 53.3542 38.1588 53.7981 38.0686C54.2419 37.9783 54.9488 37.3375 55.683 37.3375C56.4173 37.3375 58.2201 38.2807 58.9269 38.2807C59.6338 38.2807 56.7844 40.5415 53.8529 40.3475C50.9213 40.1534 48.2035 38.1543 47.8911 37.7211V37.7166Z" fill="white"/>
<path d="M49.146 37.8881C49.146 37.8881 51.0474 38.8448 53.6447 38.8448C56.242 38.8448 58.0283 38.0641 58.0283 38.0641L58.9214 38.2762C58.9214 38.2762 57.3543 40.1805 53.546 39.9639C49.7377 39.7473 48.2309 37.8881 48.2309 37.8881H49.146Z" fill="#F2EAE7"/>
<path d="M47.7761 38.0641C48.3679 38.2446 50.6693 37.8114 51.6117 37.9558C52.5542 38.1002 52.7186 38.6417 53.8584 38.6417C54.9981 38.6417 55.0858 38.0957 55.9625 37.9558C56.8392 37.8159 58.5214 38.8538 59.3215 38.4612C60.1215 38.0686 60.1817 37.509 59.6064 37.7301C59.031 37.9513 58.5982 37.9287 58.2201 37.7211C57.3488 37.2428 56.2913 36.4576 55.694 36.4576C54.8337 36.4576 54.5269 37.2067 53.8584 37.2067C53.1899 37.2067 52.6474 36.4576 51.7926 36.4576C51.1789 36.4576 50.0391 36.9495 49.0692 37.3195C48.6857 37.4684 47.9514 37.4865 47.5733 37.2834C47.1952 37.0803 47.1788 37.8881 47.7761 38.0686V38.0641Z" fill="#E8A381"/>
<path d="M48.724 38.0641C48.724 38.0641 51.7049 39.4314 53.5898 39.4314C55.4748 39.4314 58.5159 38.398 58.5159 38.398L59.3214 38.4612C59.3214 38.4612 57.0529 41.1101 53.4912 40.9567C49.9295 40.8033 47.776 38.0641 47.776 38.0641H48.724Z" fill="#E8A381"/>
<path d="M96.7522 122.744L37.7047 125V87.6354L96.7522 85.3791V122.744Z" fill="#3A3C3C"/>
<path d="M69.6778 107.947C71.545 107.947 73.0586 106.444 73.0586 104.589C73.0586 102.735 71.545 101.232 69.6778 101.232C67.8106 101.232 66.2969 102.735 66.2969 104.589C66.2969 106.444 67.8106 107.947 69.6778 107.947Z" fill="#F78888"/>
</g>
<defs>
<clipPath id="clip0_128_354">
<rect width="134.895" height="125" fill="white"/>
</clipPath>
</defs>
</svg>
