<svg width="18" height="15" viewBox="0 0 18 15" fill="none" xmlns="http://www.w3.org/2000/svg">
<path d="M16.1683 3.62819C16.8728 3.09981 17.5069 2.46576 18 1.72603C17.366 2.00783 16.6263 2.21918 15.8865 2.28963C16.6615 1.83171 17.2251 1.1272 17.5069 0.246576C16.8024 0.669278 15.9922 0.986304 15.182 1.16243C14.4775 0.422702 13.5265 0 12.4697 0C10.4266 0 8.77106 1.65558 8.77106 3.69864C8.77106 3.98044 8.80628 4.26224 8.87673 4.54404C5.81215 4.36792 3.06459 2.88846 1.23288 0.669278C0.915854 1.19765 0.739728 1.83171 0.739728 2.53621C0.739728 3.80431 1.37378 4.93152 2.39531 5.6008C1.79648 5.56557 1.19765 5.42467 0.704503 5.14287V5.17809C0.704503 6.97458 1.97261 8.45403 3.66341 8.80628C3.38161 8.87673 3.02936 8.94718 2.71234 8.94718C2.46576 8.94718 2.25441 8.91196 2.00783 8.87673C2.46576 10.3562 3.83954 11.4129 5.4599 11.4482C4.19179 12.4345 2.60666 13.0333 0.880628 13.0333C0.563602 13.0333 0.281801 12.9981 0 12.9628C1.62036 14.0196 3.55774 14.6184 5.67125 14.6184C12.4697 14.6184 16.1683 9.01763 16.1683 4.12134C16.1683 3.94522 16.1683 3.80431 16.1683 3.62819Z" fill="black"/>
</svg>
