<svg width="53" height="53" viewBox="0 0 53 53" fill="none" xmlns="http://www.w3.org/2000/svg">
<mask id="path-1-inside-1_128_318" fill="white">
<path d="M26.4146 0C41.0029 0 52.829 10.9763 52.8291 24.5162C52.8291 38.0562 41.003 49.0324 26.4146 49.0324C24.6421 49.0324 22.9106 48.8693 21.2359 48.5603L16.626 52.5463C15.3786 53.6242 13.4349 52.6602 13.3675 50.9298L13.1654 45.7285C5.2936 41.4839 0 33.5744 0 24.5162C0.000110975 10.9763 11.8263 2.41425e-05 26.4146 0Z"/>
</mask>
<path d="M26.4146 0C41.0029 0 52.829 10.9763 52.8291 24.5162C52.8291 38.0562 41.003 49.0324 26.4146 49.0324C24.6421 49.0324 22.9106 48.8693 21.2359 48.5603L16.626 52.5463C15.3786 53.6242 13.4349 52.6602 13.3675 50.9298L13.1654 45.7285C5.2936 41.4839 0 33.5744 0 24.5162C0.000110975 10.9763 11.8263 2.41425e-05 26.4146 0Z" fill="white"/>
<path d="M26.4146 0V-0.756983H26.4146L26.4146 0ZM52.8291 24.5162H53.5861V24.5162L52.8291 24.5162ZM26.4146 49.0324L26.4146 49.7894H26.4146V49.0324ZM21.2359 48.5603L21.3733 47.8159L21.0158 47.7499L20.7408 47.9877L21.2359 48.5603ZM16.626 52.5463L17.121 53.119L17.1211 53.1189L16.626 52.5463ZM13.3675 50.9298L12.611 50.9592L12.611 50.9592L13.3675 50.9298ZM13.1654 45.7285L13.9218 45.6991L13.905 45.2673L13.5247 45.0622L13.1654 45.7285ZM0 24.5162L-0.756983 24.5162V24.5162H0ZM26.4146 0V0.756983C40.639 0.756983 52.0721 11.4465 52.0722 24.5162L52.8291 24.5162L53.5861 24.5162C53.586 10.506 41.3668 -0.756983 26.4146 -0.756983V0ZM52.8291 24.5162H52.0722C52.0722 37.586 40.6391 48.2754 26.4146 48.2754V49.0324V49.7894C41.3669 49.7894 53.5861 38.5265 53.5861 24.5162H52.8291ZM26.4146 49.0324L26.4146 48.2754C24.6886 48.2754 23.0031 48.1166 21.3733 47.8159L21.2359 48.5603L21.0986 49.3047C22.8181 49.622 24.5956 49.7894 26.4146 49.7894L26.4146 49.0324ZM21.2359 48.5603L20.7408 47.9877L16.1309 51.9736L16.626 52.5463L17.1211 53.1189L21.7311 49.1329L21.2359 48.5603ZM16.626 52.5463L16.1311 51.9735C15.7658 52.2891 15.3024 52.3173 14.8906 52.113C14.4744 51.9066 14.1462 51.4734 14.1239 50.9003L13.3675 50.9298L12.611 50.9592C12.6561 52.1166 13.3335 53.0307 14.2178 53.4693C15.1066 53.9102 16.2388 53.8814 17.121 53.119L16.626 52.5463ZM13.3675 50.9298L14.1239 50.9004L13.9218 45.6991L13.1654 45.7285L12.409 45.7579L12.611 50.9592L13.3675 50.9298ZM13.1654 45.7285L13.5247 45.0622C5.8695 40.9344 0.756983 33.2652 0.756983 24.5162H0H-0.756983C-0.756983 33.8835 4.7177 42.0334 12.8061 46.3948L13.1654 45.7285ZM0 24.5162L0.756983 24.5162C0.75709 11.4465 12.1902 0.757007 26.4146 0.756983L26.4146 0L26.4146 -0.756983C11.4624 -0.756958 -0.756868 10.506 -0.756983 24.5162L0 24.5162Z" fill="#0B5243" mask="url(#path-1-inside-1_128_318)"/>
</svg>
