<svg width="55" height="120" viewBox="0 0 55 120" fill="none" xmlns="http://www.w3.org/2000/svg">
<path d="M3.97241 14.5503C3.97241 14.5503 5.40262 12.3515 7.82038 12.387C10.2381 12.4224 22.3855 24.7506 23.2427 31.2625C24.0998 37.7744 21.1657 45.276 23.3543 58.2513C25.5428 71.2329 31.3991 70.5009 31.2248 82.3902C31.1441 87.8922 28.1945 87.9904 28.8669 94.4196C29.3311 98.8966 34.5981 104.139 35.2367 106.718C36.7795 112.988 27.7093 117.621 32.0618 118.724C36.4087 119.826 49.1609 120.887 51.102 118.831C53.0431 116.775 52.4827 116.164 52.5329 112.74C52.5831 109.315 49.8728 108.089 49.9012 106.153C49.9296 104.216 54.1313 102.919 54.2136 97.3061C54.296 91.6873 51.095 88.1663 51.1321 85.6397C51.1691 83.113 53.6544 83.1556 53.0586 76.8874C52.624 72.3124 45.4792 65.1919 45.1695 63.2443C44.6687 60.1133 46.4927 57.1948 46.5805 51.2071C46.6683 45.2194 41.79 38.8454 37.0437 20.7659C32.2862 2.69233 20.1201 0.0974627 13.5262 0.000784624C6.93236 -0.0958935 1.71237 8.75567 1.71237 8.75567L-3.78103e-06 15.2053C0.79328 13.7719 2.05547 13.4215 3.97241 14.5503Z" fill="#031001"/>
</svg>
