<svg width="71" height="26" viewBox="0 0 71 26" fill="none" xmlns="http://www.w3.org/2000/svg">
<path d="M67.1771 0H3.82293C1.71158 0 0 2.08478 0 4.65648V20.5621C0 23.1338 1.71158 25.2186 3.82293 25.2186H67.1771C69.2884 25.2186 71 23.1338 71 20.5621V4.65648C71 2.08478 69.2884 0 67.1771 0Z" fill="#F0D843" fill-opacity="0.38"/>
<path d="M3.82327 0.501285H67.177C68.9236 0.501285 70.499 2.26462 70.499 4.65646V20.5625C70.4989 22.9541 68.9235 24.7176 67.177 24.7176H3.82327C2.07681 24.7176 0.501438 22.9541 0.501285 20.5625V4.65646C0.501292 2.26462 2.07673 0.501285 3.82327 0.501285Z" stroke="#656563" stroke-opacity="0.85"/>
</svg>
