<svg width="66" height="55" viewBox="0 0 66 55" fill="none" xmlns="http://www.w3.org/2000/svg">
<path d="M43.7498 27.4999C40.9388 27.4999 38.2209 26.0656 36.0935 23.4625C34.025 20.9234 32.7617 17.5375 32.5388 13.9312C32.3009 10.0844 33.3277 6.54686 35.4291 3.96874C37.5304 1.39062 40.4685 0 43.7498 0C47.0078 0 49.954 1.41562 52.0486 3.98749C54.1636 6.58436 55.1931 10.1156 54.9552 13.9297C54.7269 17.5406 53.465 20.925 51.4005 23.4609C49.2786 26.0656 46.562 27.4999 43.7498 27.4999ZM61.7733 54.9999H25.7275C25.148 55.0034 24.5755 54.855 24.054 54.5659C23.5326 54.2769 23.0761 53.855 22.7197 53.3327C22.3417 52.7665 22.0806 52.1099 21.9561 51.412C21.8316 50.7142 21.8468 49.9932 22.0006 49.303C23.1517 44.0202 26.0037 39.639 30.2474 36.6343C34.014 33.9687 38.8087 32.4999 43.7498 32.4999C48.7878 32.4999 53.4568 33.9062 57.2452 36.5702C61.4985 39.5593 64.3546 43.9655 65.5003 49.3124C65.6522 50.0031 65.6657 50.7241 65.5398 51.4215C65.4139 52.119 65.1517 52.775 64.7729 53.3405C64.4169 53.8604 63.9615 54.2802 63.4416 54.5679C62.9216 54.8555 62.351 55.0033 61.7733 54.9999ZM17.91 28.1249C13.0988 28.1249 8.86877 23.0125 8.47639 16.7297C8.28225 13.5109 9.15998 10.5344 10.9373 8.35154C12.6955 6.19061 15.1756 4.99999 17.91 4.99999C20.6443 4.99999 23.1053 6.19686 24.873 8.3703C26.664 10.5703 27.539 13.5406 27.334 16.7328C26.9416 23.014 22.7129 28.1249 17.91 28.1249ZM26.8869 33.039C24.482 31.6952 21.3607 31.0234 17.9113 31.0234C13.8836 31.0234 9.97209 32.2234 6.89592 34.4015C3.40824 36.8749 1.06215 40.4765 0.114688 44.8249C-0.0239649 45.4504 -0.037079 46.1036 0.0763267 46.7356C0.189732 47.3677 0.426722 47.9623 0.769569 48.4749C1.09489 48.9522 1.51166 49.3379 1.98782 49.6022C2.46399 49.8666 2.98687 50.0026 3.51624 49.9999H18.692C18.9481 49.9999 19.1961 49.8971 19.3928 49.7095C19.5894 49.5219 19.7222 49.2614 19.768 48.9733C19.783 48.8749 19.8021 48.7765 19.824 48.6796C20.9834 43.3577 23.7 38.8609 27.714 35.5827C27.8617 35.4611 27.9804 35.2993 28.0595 35.112C28.1386 34.9247 28.1756 34.7177 28.167 34.51C28.1585 34.3022 28.1047 34.1002 28.0105 33.9222C27.9164 33.7441 27.7849 33.5958 27.6279 33.4906C27.4133 33.3468 27.1672 33.1952 26.8869 33.039Z" fill="#FFDD5E"/>
</svg>
